<svg width="56" height="52" viewBox="0 0 56 52" fill="none" xmlns="http://www.w3.org/2000/svg"><g clip-path="url(#clip0_10147_10959)"><path d="M27.971 8.99c0-.369-.242-.49-.595-.49h-1.55v.997h1.55c.352 0 .595-.129.595-.507zM40.96 33.512v-7.644c0-1.691-1.342-3.068-2.992-3.068s-2.993 1.377-2.993 3.068v7.644c0 1.693 1.343 3.068 2.993 3.068s2.992-1.375 2.992-3.068zm8.256 0c0 6.36-5.046 11.534-11.248 11.534-4.525 0-8.422-2.759-10.208-6.714-1.308 3.7-4.739 6.365-8.794 6.365H6.784v-8.464h12.182c.622 0 1.127-.518 1.127-1.154 0-.637-.505-1.156-1.127-1.156H6.804v-19.24h19.148v8.465h-10.89v2.31h3.904c3.218 0 6.059 1.672 7.751 4.21V25.87c0-6.359 5.047-11.533 11.25-11.533s11.25 5.174 11.25 11.533v7.644h-.002zm-.777-20.545H46.52l-.226-.944h-1.86l-.227.944h-1.919l1.475-6.013h3.2l.33 1.341-2.031.212-.486 2.04h1.165l-.37-1.555 1.845-.191 1.022 4.167zm-6.072-6.013L40.347 9.3l1.902 3.666h-2.095l-1.047-2.06h-.142l-.687.806v1.254h-1.927V6.953h1.927v2.148h.118l1.724-2.148h2.246v.001zm-10.209 1.89c0 .25.192.344.419.344h1.432c1.123 0 1.869.653 1.869 1.856 0 1.204-.746 1.924-1.87 1.924H30.44v-1.546h3.158c.3 0 .427-.12.427-.327 0-.24-.126-.36-.435-.36h-1.4c-1.072 0-1.868-.662-1.868-1.9 0-1.236.795-1.88 1.868-1.88h3.402V8.5h-3.016c-.227 0-.419.086-.419.343zm-2.25.087c0 .841-.37 1.417-.998 1.692l.905 2.344H27.78l-.738-2.137h-1.216v2.137h-1.784V6.954h3.779c1.274 0 2.087.74 2.087 1.976m-6.598 4.037H18.34V6.954h4.968v1.547h-3.075v.686h3.075v1.546h-3.075v.688h3.075V12.967zm-5.652 0h-5.093v-1.545l2.606-2.86V8.5h-2.606V6.954h5.085v1.547l-2.588 2.851v.07h2.596v1.545zm-5.778 0H9.952V6.954h1.927v6.013zm-2.606-2.362c0 1.537-.763 2.405-2.49 2.405V11c.344 0 .561-.284.561-.782V6.954h1.928v3.65zM56 33.222V0H0v52h37.682C47.8 52 56 43.592 56 33.222z" fill="#fff"/></g><defs><clipPath id="clip0_10147_10959"><path fill="#fff" d="M0 0h56v52H0z"/></clipPath></defs></svg>